<svg preserveAspectRatio="xMidYMid meet" viewBox="44 2.5 180.25 53.75" xmlns="http://www.w3.org/2000/svg" version="1.0" style="max-height: 500px" width="180.25" height="53.75">
<g stroke="none" fill="#FFC827" transform="translate(0.000000,57.000000) scale(0.050000,-0.050000)">
<path d="M2207 1059 c-583 -113 -492 -1004 102 -1004 294 0 491 203 491 505 0&#10;336 -269 562 -593 499z m287 -212 c266 -198 143 -627 -179 -627 -348 0 -467&#10;437 -175 636 88 60 269 55 354 -9z"/>
<path d="M2274 697 c-19 -45 -53 -82 -92 -99 -77 -34 -77 -43 -2 -72 41 -15&#10;71 -48 93 -99 l31 -76 39 76 c24 46 64 86 102 102 l62 26 -63 33 c-35 18 -81&#10;66 -102 107 l-38 74 -30 -72z"/>
<path d="M924 975 l6 -81 191 -2 c282 -3 406 -105 406 -332 0 -228 -125 -330&#10;-406 -330 l-191 0 0 -80 0 -80 210 7 c381 13 560 173 560 499 0 297 -195 456&#10;-576 472 l-206 8 6 -81z"/>
<path d="M2844 973 l6 -77 390 1 390 1 6 76 6 76 -402 0 -402 0 6 -77z"/>
<path d="M3860 1041 c0 -12 27 -76 61 -142 68 -136 66 -156 -18 -144 -48 7&#10;-62 0 -74 -38 -8 -26 -73 -173 -143 -327 -71 -154 -134 -292 -140 -306 -27&#10;-63 160 -18 193 46 43 83 33 81 279 74 l223 -7 28 -68 c26 -63 36 -69 112 -69&#10;103 0 116 -49 -145 530 l-208 460 -84 6 c-51 4 -84 -2 -84 -15z m231 -511 c38&#10;-88 69 -162 69 -165 0 -3 -67 -5 -150 -5 -82 0 -150 6 -150 14 0 35 132 324&#10;146 320 8 -2 46 -76 85 -164z"/>
<path d="M3236 824 l-75 -54 -4 -315 c-2 -173 -4 -331 -5 -350 -2 -27 17 -36&#10;83 -41 l85 -6 0 411 c0 226 -2 411 -5 410 -3 0 -39 -25 -79 -55z"/>
</g>
</svg>